<?xml version="1.0" encoding="UTF-8" standalone="no"?>
<svg
   width="56"
   height="14"
   viewBox="0 0 56 14"
   fill="none"
   version="1.1"
   id="svg25"
   sodipodi:docname="471eb3f02ac471ff7ebb0224461a8556.svg"
   xmlns:inkscape="http://www.inkscape.org/namespaces/inkscape"
   xmlns:sodipodi="http://sodipodi.sourceforge.net/DTD/sodipodi-0.dtd"
   xmlns="http://www.w3.org/2000/svg"
   xmlns:svg="http://www.w3.org/2000/svg">
  <sodipodi:namedview
     id="namedview27"
     pagecolor="#ffffff"
     bordercolor="#666666"
     borderopacity="1.0"
     inkscape:pageshadow="2"
     inkscape:pageopacity="0.0"
     inkscape:pagecheckerboard="0" />
  <rect
     width="56"
     height="14"
     rx="4"
     fill="#e5ac1a"
     id="rect2"
     x="0"
     y="0" />
  <g
     clip-path="url(#clip0_3541_3928)"
     id="g18">
    <path
       d="M 9.89231,4.22549 C 9.54389,4.07843 9.12579,4 8.64796,4 H 6.3086 C 6.219,4 6.14932,4.02941 6.08959,4.08824 6.02986,4.14706 6,4.21569 6,4.30392 V 9.68627 C 6,9.77451 6.02986,9.85294 6.08959,9.90196 6.14932,9.96078 6.219,9.9902 6.3086,9.9902 h 1.12488 c 0.0896,0 0.16923,-0.02942 0.21901,-0.07843 C 7.72217,9.85294 7.75204,9.77451 7.75204,9.68627 V 7.97059 h 0.89592 c 0.47783,0 0.88598,-0.06863 1.24435,-0.20588 C 10.2507,7.62745 10.5394,7.40196 10.7385,7.11765 10.9475,6.82353 11.0471,6.45098 11.0471,6.0098 11.0471,5.56863 10.9475,5.18627 10.7385,4.88235 10.5394,4.58824 10.2507,4.36275 9.89231,4.21569 Z M 9.29502,6 c 0,0.21569 -0.05973,0.37255 -0.17918,0.48039 C 8.99638,6.58824 8.82715,6.63725 8.6181,6.63725 H 7.74208 V 5.35294 H 8.6181 c 0.24887,0 0.42805,0.05882 0.5276,0.17647 C 9.2552,5.65686 9.30498,5.80392 9.30498,6 Z"
       fill="#feffff"
       id="path4" />
    <path
       d="m 16.5818,7.63725 c 0.2788,-0.14705 0.5177,-0.34313 0.6969,-0.59803 0.209,-0.28432 0.3086,-0.63726 0.3086,-1.04902 0,-0.62745 -0.229,-1.12745 -0.667,-1.47059 C 16.4922,4.17647 15.895,4 15.1583,4 h -2.2796 c -0.0896,0 -0.1593,0.02941 -0.219,0.08824 -0.0598,0.05882 -0.0896,0.12745 -0.0896,0.21568 v 5.38235 c 0,0.08824 0.0298,0.16667 0.0896,0.21569 0.0597,0.05882 0.1294,0.08824 0.219,0.08824 h 1.0751 c 0.0896,0 0.1692,-0.02942 0.219,-0.08824 0.0597,-0.05882 0.0896,-0.12745 0.0896,-0.21569 V 7.94118 h 0.6968 l 0.9258,1.7647 c 0.0299,0.04902 0.0697,0.10785 0.1294,0.17647 0.0697,0.06863 0.1692,0.10785 0.3086,0.10785 h 1.105 c 0.0796,0 0.1394,-0.02942 0.1991,-0.07843 0.0597,-0.05883 0.0896,-0.12746 0.0896,-0.19608 0,-0.03922 -0.01,-0.08824 -0.0398,-0.13726 L 16.5719,7.62745 Z M 15.8352,5.97059 c 0,0.19608 -0.0597,0.34314 -0.1692,0.45098 -0.1095,0.10784 -0.2787,0.16667 -0.5177,0.16667 h -0.866 v -1.2353 h 0.866 c 0.239,0 0.4181,0.05882 0.5177,0.16667 0.1095,0.11764 0.1692,0.2647 0.1692,0.45098 z"
       fill="#feffff"
       id="path6" />
    <path
       d="m 23.5801,8.60784 h -2.638 V 7.64706 h 2.3891 c 0.0896,0 0.1693,-0.02941 0.229,-0.08824 C 23.6199,7.5 23.6398,7.42157 23.6398,7.34314 V 6.61765 C 23.6398,6.52941 23.61,6.46078 23.5602,6.40196 23.5005,6.33333 23.4208,6.30392 23.3312,6.30392 H 20.9421 V 5.38235 h 2.5683 c 0.0896,0 0.1593,-0.02941 0.219,-0.08823 C 23.7892,5.23529 23.819,5.16667 23.819,5.07843 V 4.30392 C 23.819,4.21569 23.7892,4.14706 23.7294,4.08824 23.6697,4.02941 23.6,4 23.5104,4 h -3.9022 c -0.0896,0 -0.1593,0.02941 -0.219,0.08824 -0.0598,0.05882 -0.0896,0.12745 -0.0896,0.21568 v 5.38235 c 0,0.08824 0.0298,0.16667 0.0896,0.21569 0.0597,0.05882 0.1294,0.08824 0.219,0.08824 h 3.9719 c 0.0896,0 0.1593,-0.02942 0.219,-0.08824 0.0597,-0.05882 0.0896,-0.12745 0.0896,-0.21569 v -0.7745 c 0,-0.08824 -0.0299,-0.15687 -0.0896,-0.21569 -0.0597,-0.05883 -0.1294,-0.08824 -0.219,-0.08824 z"
       fill="#feffff"
       id="path8" />
    <path
       d="M 31.2054,4 H 30.3095 C 30.19,4 30.0904,4.03922 30.0208,4.10784 29.9809,4.15686 29.9411,4.19608 29.9212,4.23529 L 28.5375,6.69608 27.1638,4.2451 c 0,0 -0.0598,-0.08824 -0.1096,-0.13726 C 26.9945,4.03922 26.895,4 26.7755,4 H 25.8696 C 25.79,4 25.7203,4.02941 25.6506,4.08824 25.5909,4.14706 25.561,4.21569 25.561,4.30392 v 5.38235 c 0,0.08824 0.0299,0.16667 0.0896,0.2255 0.0598,0.05882 0.1394,0.07843 0.219,0.07843 h 1.0055 c 0.0896,0 0.1692,-0.02942 0.219,-0.08824 0.0597,-0.05882 0.0896,-0.12745 0.0896,-0.21569 V 6.97059 l 0.7565,1.39215 c 0.0299,0.05883 0.0797,0.11765 0.1294,0.15687 0.0598,0.05882 0.1494,0.07843 0.2489,0.07843 h 0.438 c 0.0996,0 0.1892,-0.02941 0.2489,-0.07843 0.0597,-0.04902 0.0995,-0.10785 0.1194,-0.15687 l 0.7566,-1.39215 v 2.71568 c 0,0.08824 0.0299,0.16667 0.0896,0.2255 0.0597,0.05882 0.1394,0.07843 0.2289,0.07843 h 0.9955 c 0.0896,0 0.1693,-0.02942 0.219,-0.07843 0.0697,-0.05883 0.0996,-0.13726 0.0996,-0.2255 V 4.30392 C 31.514,4.21569 31.4841,4.13725 31.4144,4.08824 31.3547,4.02941 31.285,4 31.1954,4 Z"
       fill="#feffff"
       id="path10" />
    <path
       d="m 34.8488,4 h -1.1249 c -0.0896,0 -0.1693,0.02941 -0.219,0.08824 -0.0598,0.05882 -0.0896,0.12745 -0.0896,0.21568 v 5.38235 c 0,0.08824 0.0298,0.16667 0.0896,0.21569 0.0597,0.05882 0.1294,0.08824 0.219,0.08824 h 1.1249 c 0.0896,0 0.1692,-0.02942 0.219,-0.08824 0.0597,-0.05882 0.0896,-0.12745 0.0896,-0.21569 V 4.30392 c 0,-0.08823 -0.0299,-0.15686 -0.0896,-0.21568 C 35.008,4.02941 34.9384,4 34.8488,4 Z"
       fill="#feffff"
       id="path12" />
    <path
       d="m 41.8969,4 h -1.0851 c -0.0796,0 -0.1493,0.02941 -0.219,0.08824 -0.0597,0.05882 -0.0896,0.12745 -0.0896,0.21568 v 3.32353 c 0,0.32353 -0.0796,0.56863 -0.2389,0.73529 -0.1593,0.15687 -0.3683,0.2353 -0.657,0.2353 -0.2887,0 -0.5177,-0.07843 -0.667,-0.2353 C 38.781,8.20588 38.7114,7.95098 38.7114,7.62745 V 4.30392 c 0,-0.08823 -0.0299,-0.15686 -0.0896,-0.21568 C 38.562,4.02941 38.4923,4 38.4028,4 H 37.3276 C 37.238,4 37.1584,4.02941 37.1086,4.08824 37.0489,4.14706 37.019,4.21569 37.019,4.30392 v 3.33333 c 0,0.52942 0.1095,0.9804 0.3186,1.33334 0.219,0.34314 0.5276,0.60784 0.9158,0.78431 C 38.6417,9.92157 39.0996,10 39.6172,10 40.1349,10 40.5928,9.92157 40.981,9.7549 41.3693,9.58824 41.6779,9.32353 41.8969,8.97059 42.1159,8.61765 42.2154,8.16667 42.2154,7.63725 V 4.30392 c 0,-0.08823 -0.0298,-0.16667 -0.0995,-0.21568 C 42.0561,4.02941 41.9865,4 41.9068,4 Z"
       fill="#feffff"
       id="path14" />
    <path
       d="M 49.9005,4.08824 C 49.8407,4.02941 49.771,4 49.6815,4 h -0.896 C 48.6561,4 48.5665,4.03922 48.5068,4.10784 48.457,4.15686 48.4272,4.19608 48.4072,4.23529 L 47.0235,6.69608 45.6398,4.2451 c 0,0 -0.0597,-0.08824 -0.1095,-0.13726 C 45.4706,4.03922 45.371,4 45.2516,4 h -0.9059 c -0.0796,0 -0.1593,0.02941 -0.219,0.08824 -0.0597,0.05882 -0.0896,0.12745 -0.0896,0.21568 v 5.38235 c 0,0.08824 0.0299,0.16667 0.0896,0.2255 0.0597,0.05882 0.1394,0.07843 0.219,0.07843 h 1.0054 c 0.0896,0 0.1693,-0.02942 0.219,-0.08824 0.0598,-0.05882 0.0896,-0.12745 0.0896,-0.21569 V 6.97059 l 0.7566,1.39215 c 0.0299,0.05883 0.0796,0.11765 0.1294,0.15687 0.0597,0.05882 0.1493,0.07843 0.2489,0.07843 h 0.438 c 0.0995,0 0.1891,-0.02941 0.2489,-0.07843 0.0597,-0.04902 0.0995,-0.10785 0.1194,-0.15687 l 0.7566,-1.39215 v 2.71568 c 0,0.08824 0.0298,0.16667 0.0896,0.2255 0.0597,0.05882 0.1393,0.07843 0.2289,0.07843 h 0.9955 c 0.0896,0 0.1692,-0.02942 0.219,-0.07843 C 49.9602,9.85294 49.99,9.77451 49.99,9.68627 V 4.30392 c 0,-0.08823 -0.0298,-0.16667 -0.0995,-0.21568 z"
       fill="#feffff"
       id="path16" />
  </g>
  <defs
     id="defs23">
    <clipPath
       id="clip0_3541_3928">
      <rect
         width="44"
         height="6"
         fill="#ffffff"
         transform="translate(6,4)"
         id="rect20"
         x="0"
         y="0" />
    </clipPath>
  </defs>
</svg>
